<svg width="1440" height="122" viewBox="0 0 1440 122" fill="none" xmlns="http://www.w3.org/2000/svg">
<path d="M0 58.1458L20 66.0458C40 73.9458 80 89.7458 120 76.5626C160 63.577 200 21.1145 240 21.2626C280 21.1145 320 63.577 360 63.4289C400 63.577 440 21.1145 480 16.0289C520 10.7458 560 42.3458 600 42.3458C640 42.3458 680 10.7458 720 2.84576C760 -5.05424 800 10.7458 840 13.3626C880 16.177 920 5.31451 960 10.7458C1000 16.177 1040 36.9145 1080 52.8626C1120 68.5145 1160 79.377 1200 71.3289C1240 63.577 1280 36.9145 1320 31.8289C1360 26.5458 1400 42.3458 1420 50.2458L1440 58.1458V121.346H1420C1400 121.346 1360 121.346 1320 121.346C1280 121.346 1240 121.346 1200 121.346C1160 121.346 1120 121.346 1080 121.346C1040 121.346 1000 121.346 960 121.346C920 121.346 880 121.346 840 121.346C800 121.346 760 121.346 720 121.346C680 121.346 640 121.346 600 121.346C560 121.346 520 121.346 480 121.346C440 121.346 400 121.346 360 121.346C320 121.346 280 121.346 240 121.346C200 121.346 160 121.346 120 121.346C80 121.346 40 121.346 20 121.346H0V58.1458Z" fill="#FFF1DC"/>
</svg>
