<svg xmlns="http://www.w3.org/2000/svg" width="315" viewBox="0 0 315 124" preserveAspectRatio="xMidYMid meet" fill="none"><path fill="#E2F0FF" d="M48.478 13.31c3.433-.516 6.87-1.008 10.298-1.555 5.735-.914 11.469-1.839 17.194-2.807 3.66-.62 7.286-1.472 10.961-1.957 5.072-.67 6.947-.286 9.119 3.53.876 1.54.996 3.544 1.31 5.362 1.448 8.379 2.947 16.75 4.223 25.156.937 6.177-.781 9.38-7.903 10.644-9.67 1.717-19.385 3.165-29.07 4.793-6.554 1.103-13.087 2.333-19.635 3.476-4.424.772-8.844 1.592-13.291 2.198-2.75.374-6.33-2.04-6.804-4.985-.418-2.595-1.093-5.148-1.712-8.007-.933-5.421-1.838-10.55-2.675-15.69-.51-3.126-1.095-6.257-1.316-9.409-.212-3.048 2.27-5.826 5.288-6.377 4.77-.87 9.546-1.709 14.317-2.574 3.234-.587 6.464-1.198 9.696-1.798"/><path fill="#E2F0FF" d="M51.946 42.889c4.111-6.353 1.26-14.626-5.954-16.8-4.926-1.484-9.129.06-12.516 3.866-4.526 5.086-3.16 13.566 2.782 16.9.488.32.943.716 1.47.948 3.909 1.723 7.522.803 10.83-1.505 1.225-.854 2.127-2.17 3.388-3.41M70.825 24.574c-.588.113-1.175.238-1.766.338-2.246.38-4.507.687-6.734 1.157-1.115.236-2.395.708-2.137 2.2.265 1.537 1.474 1.914 2.906 1.682.119-.02.236-.049.355-.069q9.394-1.593 18.787-3.19c1.418-.242 2.85-.429 4.246-.767 1.185-.287 2.21-1.012 2-2.365-.213-1.382-1.346-1.72-2.634-1.535-.237.035-.47.1-.706.14a2032 2032 0 0 1-14.317 2.41M72.23 40.854c1.067-.16 2.14-.293 3.202-.487 1.472-.27 3.012-.399 4.37-.959.704-.29 1.077-1.378 1.6-2.105-.73-.511-1.433-1.07-2.204-1.508-.271-.155-.718-.065-1.07-.004-4.964.862-9.932 1.707-14.883 2.637-1.067.2-1.953.896-1.696 2.17.248 1.222 1.128 1.87 2.39 1.671 2.665-.421 5.317-.924 8.29-1.415"/><path fill="#D7FBF3" d="M263.449 76.518c.421-1.467.568-2.907 1.205-4.08 1.249-2.303 3.532-2.553 5.841-2.21 4.68.693 9.345 1.492 14.015 2.252q9.664 1.573 19.327 3.152c2.247.367 4.502.69 6.736 1.123 2.664.515 4.162 3.026 3.7 5.71-1.209 7.024-2.323 14.064-3.487 21.095-.244 1.477-.463 2.965-.83 4.414-.603 2.39-2.924 3.901-5.404 3.5-7.094-1.147-14.173-2.389-21.271-3.51a762 762 0 0 0-17.777-2.601c-4.915-.656-6.381-2.685-5.534-7.587 1.213-7.025 2.291-14.073 3.479-21.258"/><path fill="#D7FBF3" d="M282.073 95.527c2.806-1.906 3.701-4.697 3.274-7.862-.459-3.399-3.215-6.203-6.626-6.807-3.259-.577-6.262.02-8.385 2.895-2.212 2.995-2.245 7.063-.116 9.556.496 1.923 2.114 2.648 3.688 3.356 2.909 1.308 6.291.796 8.165-1.138M298.72 99.871c.709.096 1.477.406 2.111.23.7-.193 1.488-.716 1.819-1.324.167-.307-.508-1.547-.944-1.63-3.28-.634-6.589-1.141-9.908-1.53-.481-.057-1.405.652-1.5 1.13-.096.49.488 1.218.943 1.673.291.29.882.309 1.348.392 1.939.348 3.881.674 6.131 1.06M303.079 89.214c-3.416-.617-6.824-1.288-10.257-1.787-.467-.069-1.468.693-1.495 1.117-.038.602.504 1.706.961 1.8 3.167.65 6.365 1.199 9.577 1.56 1.773.2 2.237-.781 1.214-2.69"/><path fill="#EFF8FF" d="M48.474 13.172c-3.228.738-6.458 1.349-9.692 1.936-4.77.865-9.547 1.704-14.317 2.574-3.019.55-5.5 3.33-5.288 6.378.22 3.151.806 6.282 1.316 9.408.837 5.14 1.742 10.269 2.617 15.56-5.799.168-10.47-2.484-14.749-6.076C4.38 39.61 1.87 35.302.888 30.295c-.933-4.756-.374-9.51 1.393-14.099C5.196 8.63 10.583 3.544 18.186 1.126 21.128.19 24.516.082 27.623.392c3.83.381 7.725 1.196 11.324 2.542 4.66 1.743 8.1 5.082 9.527 10.238M183.327 9.319c1.819-.282 2.233.494 2.124 2.036-.308 4.364-.474 8.737-.775 13.101-.089 1.299-.689 2.348-2.259 2.262-5.194-.284-10.386-.584-16.019-.902l1.183-17.553c5.391-.034 10.498.27 15.746 1.056"/><path fill="#AEB0FF" d="M258.181 37.582c.742-1 1.382-2.099 2.242-2.983 6.659-6.85 13.36-13.659 20.264-20.482a53 53 0 0 1 4.645 4.701c-.563.615-.994 1.194-1.499 1.7a5968 5968 0 0 1-15.671 15.674 136 136 0 0 1-5.661 5.333 318 318 0 0 1-4.32-3.943"/><path fill="#A3A1FF" d="M262.611 41.577c1.851-1.794 3.724-3.566 5.551-5.385a5968 5968 0 0 0 15.671-15.674c.505-.506.936-1.085 1.607-1.647 1.722 1.41 3.239 2.837 4.756 4.263-7.322 7.48-14.638 14.965-21.978 22.427-.355.36-.912.523-1.51.662a495 495 0 0 1-4.097-4.646"/><path fill="#EFF8FF" d="M19.832 94.115c3.321.232 5.596 3.219 6.132 5.929.455 2.3-1.26 6.104-3.344 7.137-2.333 1.157-4.86 1.3-7.017-.245-2.283-1.634-3.45-4.064-2.925-6.932.515-2.82 2.224-4.734 5.073-5.485.635-.168 1.287-.27 2.08-.404"/><path fill="#AEB0FF" d="M283.244 11.504c1.116-1.177 2.124-2.484 3.367-3.505 3.335-2.74 8.696-.551 10.044 3.94.798 2.659-.316 4.684-1.865 6.618-.449.562-1.01 1.034-1.736 1.553-2.877-2.516-5.527-5.05-8.21-7.548-.462-.43-1.063-.71-1.6-1.058"/><path fill="#E2F0FF" d="M173.928 120.647c-2.958 2.196-5.496 2.191-7.435-.022-1.273-1.453-1.559-3.176-.856-4.991.776-2.006 2.579-2.748 4.441-2.857 1.734-.103 3.376.546 4.313 2.328 1.012 1.926 1.267 3.732-.463 5.542"/><path fill="#C3C7FF" d="M262.501 41.525a96 96 0 0 1 4.075 4.718 61 61 0 0 1-6.896 2.081c-2.094-.2-2.428-2.026-3.506-3.02.609-2.51 1.218-5.02 1.917-7.627 1.493 1.202 2.897 2.5 4.41 3.848"/><path fill="#E2F0FF" d="M123.236 44.668c-1.111-1.39-1.999-2.832-3.14-4.034-.738-.777-1.847-1.203-3.229-2.06 3.094-1.397 5.094-3.35 6.142-6.362 1.185 3.069 3.001 5.341 6.339 6.389-3.393.867-4.51 3.664-6.112 6.067M213.09 79.45c-1.111-1.39-1.999-2.832-3.14-4.034-.738-.777-1.846-1.203-3.229-2.059 3.094-1.398 5.094-3.351 6.143-6.363 1.184 3.069 3 5.342 6.338 6.389-3.393.868-4.51 3.665-6.112 6.067"/><path fill="#C3C7FF" d="M283.136 11.553c.645.3 1.246.579 1.708 1.009 2.683 2.498 5.333 5.032 8.106 7.609-.778.981-1.668 1.908-2.656 2.899-1.615-1.362-3.132-2.788-4.756-4.268-1.617-1.598-3.125-3.143-4.746-4.745.671-.857 1.453-1.655 2.344-2.504"/><path fill="#E2F0FF" d="M50.775 119.588c-1.29 1.347-2.461 2.632-3.383 3.642l-5.077-5.016c2.357-.724 3.93-2.645 5.08-5.639.94 2.891 2.525 4.714 5.425 5.753-.888.552-1.408.875-2.045 1.26"/><path fill="#8D89FE" d="M256.137 45.434c1.114.864 1.449 2.69 3.401 2.879a11.5 11.5 0 0 1-2.099.923c-1.939.629-2.487.143-2.024-1.816.15-.638.452-1.239.722-1.986"/><path fill="#AEC8FF" d="M36.144 46.62c-5.828-3.1-7.194-11.579-2.668-16.665 3.387-3.805 7.59-5.35 12.516-3.866 7.214 2.174 10.065 10.447 5.78 16.768-1.546-1.15-2.751-2.758-4.322-3.297-5.15-1.765-10.226.207-11.306 7.06"/><path fill="#AEC8FF" d="M39.784 36.7c1.3 1.36 2.995 1.331 4.27.439.925-.648 1.672-2.111 1.758-3.266.12-1.626-.88-2.96-2.641-3.42-1.636-.427-2.814.33-3.753 1.549-1.175 1.522-.83 3.03.366 4.698M70.984 24.565c4.825-.806 9.492-1.602 14.158-2.4.237-.04.469-.105.706-.14 1.288-.186 2.42.153 2.635 1.535.21 1.353-.816 2.079-2.001 2.365-1.396.338-2.828.525-4.246.766q-9.394 1.598-18.787 3.191c-.119.02-.236.05-.355.069-1.431.232-2.64-.145-2.906-1.683-.258-1.49 1.022-1.963 2.137-2.199 2.227-.47 4.488-.777 6.734-1.157.59-.1 1.178-.224 1.925-.348"/><path fill="#D8E1FE" d="M36.201 46.738c1.023-6.971 6.099-8.943 11.249-7.178 1.57.539 2.776 2.146 4.216 3.364-.981 1.205-1.883 2.52-3.108 3.374-3.308 2.308-6.921 3.228-10.83 1.505-.527-.232-.982-.628-1.527-1.065"/><path fill="#AEC8FF" d="M72.071 40.865c-2.815.48-5.467.983-8.132 1.404-1.262.2-2.142-.449-2.39-1.672-.257-1.273.63-1.97 1.696-2.17 4.951-.929 9.919-1.774 14.883-2.636.352-.06.799-.15 1.07.004.771.438 1.474.996 2.203 1.508-.522.727-.895 1.816-1.598 2.105-1.359.56-2.899.69-4.371.959-1.062.194-2.135.327-3.361.498"/><path fill="#BDF0E2" d="M270.225 93.048c-2.134-2.232-2.101-6.3.111-9.295 2.123-2.876 5.126-3.472 8.385-2.895 3.411.604 6.167 3.408 6.626 6.807.427 3.165-.468 5.957-3.405 7.73-.709-3.813-3.298-5.932-6.83-5.634-2.246.19-3.654 1.602-4.887 3.287M105.009 95.947c-2.134-2.232-2.101-6.3.111-9.295 2.123-2.876 5.126-3.472 8.386-2.895 3.41.603 6.166 3.408 6.625 6.807.427 3.164-.468 5.956-3.405 7.73-.709-3.813-3.298-5.932-6.829-5.634-2.247.19-3.655 1.602-4.888 3.287"/><path fill="#BDF0E2" d="M274.93 86.926c.732 1.98 1.761 2.636 3.489 2.051 1.453-.492 1.712-1.761 1.553-3.084-.179-1.485-1.272-2.156-2.619-2.228-1.354-.073-2.338 1.24-2.423 3.261"/><path fill="#EDFDF9" d="M270.223 93.179c1.235-1.816 2.643-3.228 4.889-3.418 3.532-.298 6.121 1.821 6.705 5.644-1.618 2.056-5 2.569-7.909 1.26-1.574-.708-3.192-1.433-3.685-3.486M105.007 96.077c1.235-1.815 2.643-3.228 4.89-3.417 3.531-.298 6.12 1.82 6.704 5.644-1.618 2.055-5 2.568-7.909 1.26-1.574-.708-3.192-1.433-3.685-3.487"/><path fill="#9EDFCE" d="M298.565 99.845c-2.095-.36-4.037-.685-5.976-1.032-.466-.084-1.057-.102-1.348-.393-.455-.455-1.039-1.184-.943-1.672.095-.479 1.019-1.188 1.5-1.132 3.319.39 6.628.897 9.908 1.53.436.084 1.111 1.324.944 1.631-.331.608-1.119 1.131-1.819 1.324-.634.176-1.402-.134-2.266-.256M303.184 89.306c.918 1.817.454 2.798-1.319 2.599-3.212-.362-6.41-.912-9.577-1.562-.457-.093-.999-1.197-.961-1.8.027-.423 1.028-1.184 1.495-1.117 3.433.5 6.841 1.17 10.362 1.88"/><path fill="#E2F0FF" d="M39.685 36.597c-1.097-1.566-1.442-3.073-.267-4.595.94-1.218 2.117-1.976 3.753-1.549 1.76.46 2.762 1.794 2.641 3.42-.086 1.155-.832 2.618-1.758 3.266-1.275.892-2.97.921-4.37-.542"/><path fill="#EDFDF9" d="M274.925 86.778c.09-1.872 1.074-3.186 2.428-3.113 1.347.072 2.44.743 2.619 2.228.159 1.323-.1 2.592-1.553 3.084-1.728.585-2.757-.072-3.494-2.2M109.709 89.676c.09-1.872 1.074-3.185 2.428-3.113 1.347.072 2.44.744 2.619 2.228.159 1.323-.099 2.593-1.553 3.085-1.728.584-2.757-.072-3.494-2.2"/></svg>