<svg xmlns="http://www.w3.org/2000/svg" width="367" viewBox="0 0 367 196" preserveAspectRatio="xMidYMid meet" fill="none"><path fill="#EFF8FF" d="M305.265 1.952c3.099-.48 3.804.842 3.619 3.468-.524 7.432-.808 14.88-1.32 22.312-.153 2.212-1.174 3.999-3.848 3.853-8.845-.484-17.689-.994-27.282-1.537L278.45.154c9.18-.058 17.879.46 26.815 1.798M26.82 146.367c5.656.395 9.532 5.482 10.444 10.097.775 3.917-2.146 10.397-5.695 12.156-3.974 1.969-8.276 2.214-11.951-.417-3.888-2.783-5.876-6.923-4.982-11.807.878-4.803 3.788-8.062 8.64-9.341 1.082-.286 2.192-.461 3.544-.688M13.245 18.02c5.656.395 9.531 5.482 10.444 10.097.775 3.917-2.146 10.397-5.695 12.156-3.974 1.97-8.277 2.214-11.952-.417C2.155 37.073.167 32.933 1.06 28.049c.88-4.803 3.789-8.062 8.64-9.342 1.082-.285 2.193-.46 3.545-.687"/><path fill="#E2F0FF" d="M289.259 191.554c-5.037 3.74-9.36 3.731-12.662-.037-2.168-2.475-2.655-5.41-1.459-8.501 1.322-3.417 4.392-4.68 7.564-4.867 2.953-.174 5.75.931 7.345 3.966 1.724 3.28 2.159 6.355-.788 9.439M202.926 62.155c-1.892-2.367-3.404-4.823-5.348-6.87-1.257-1.324-3.145-2.05-5.499-3.507 5.27-2.38 8.675-5.708 10.461-10.838 2.017 5.227 5.11 9.098 10.795 10.882-5.778 1.478-7.68 6.24-10.409 10.333M355.956 121.392c-1.892-2.366-3.405-4.823-5.349-6.87-1.257-1.324-3.144-2.05-5.499-3.507 5.27-2.381 8.675-5.708 10.461-10.837 2.018 5.227 5.111 9.097 10.795 10.881-5.778 1.478-7.68 6.241-10.408 10.333M100.495 99.178c-1.892-2.366-3.404-4.823-5.348-6.87-1.257-1.324-3.145-2.05-5.499-3.507 5.27-2.38 8.675-5.708 10.461-10.837 2.017 5.227 5.111 9.097 10.795 10.88-5.778 1.479-7.68 6.242-10.409 10.334M79.518 189.75c-2.196 2.294-4.191 4.482-5.76 6.203l-8.647-8.543c4.013-1.233 6.692-4.505 8.651-9.604 1.603 4.924 4.301 8.028 9.24 9.797-1.513.94-2.398 1.491-3.484 2.147"/><path fill="#BDF0E2" d="M171.884 149.487c-3.635-3.802-3.578-10.729.188-15.83 3.616-4.898 8.73-5.914 14.282-4.931 5.809 1.028 10.502 5.805 11.284 11.594.727 5.389-.797 10.143-5.799 13.165-1.207-6.495-5.616-10.103-11.631-9.596-3.827.322-6.225 2.728-8.324 5.598"/><path fill="#EDFDF9" d="M171.88 149.709c2.103-3.092 4.501-5.498 8.328-5.82 6.015-.507 10.424 3.101 11.419 9.612-2.757 3.501-8.517 4.374-13.471 2.146-2.681-1.205-5.436-2.441-6.276-5.938M179.889 138.808c.152-3.189 1.828-5.426 4.135-5.302 2.294.123 4.156 1.266 4.46 3.795.271 2.252-.17 4.415-2.645 5.252-2.943.996-4.695-.122-5.95-3.745"/></svg>