<svg xmlns="http://www.w3.org/2000/svg" width="24" viewBox="0 0 24 24" preserveAspectRatio="xMidYMid meet" fill="none"><path fill="#000" d="M0 0h24v24H0z"/><path fill="#fff" d="M21.28 18.424a12.5 12.5 0 0 1-1.236 2.223q-.976 1.39-1.593 1.925-.953.877-2.047.902-.787 0-1.891-.452-1.106-.45-2.036-.45-.975 0-2.094.45-1.119.453-1.809.476-1.05.046-2.093-.926-.667-.581-1.666-1.993-1.072-1.506-1.762-3.5-.74-2.152-.74-4.17 0-2.314 1-3.985a5.87 5.87 0 0 1 2.095-2.12 5.64 5.64 0 0 1 2.832-.798q.833.002 2.19.51 1.357.51 1.738.51.287 0 1.927-.601 1.547-.557 2.618-.465c1.935.156 3.39.919 4.356 2.293q-2.595 1.574-2.57 4.401.024 2.204 1.595 3.659.71.675 1.593 1.045-.192.555-.406 1.066M16.844.96q0 1.726-1.258 3.218c-1.011 1.182-2.234 1.865-3.56 1.757A4 4 0 0 1 12 5.5c0-1.105.48-2.287 1.334-3.253q.639-.734 1.626-1.22.984-.481 1.86-.527.024.232.024.46"/></svg>