<svg xmlns="http://www.w3.org/2000/svg" width="24" viewBox="0 0 24 24" preserveAspectRatio="xMidYMid meet" fill="none"><path stroke="currentColor" stroke-linecap="round" stroke-linejoin="round" stroke-width="2" d="M11.5 4.765H7.3c-1.68 0-2.52 0-3.162.327a3 3 0 0 0-1.311 1.311C2.5 7.045 2.5 7.885 2.5 9.565v8.4c0 1.68 0 2.52.327 3.162a3 3 0 0 0 1.311 1.311c.642.327 1.482.327 3.162.327h8.4c1.68 0 2.52 0 3.162-.327a3 3 0 0 0 1.311-1.31c.327-.643.327-1.483.327-3.163v-4.2m-12 3h1.675c.489 0 .733 0 .963-.055.204-.05.4-.13.579-.24.201-.123.374-.296.72-.642L22 6.265a2.121 2.121 0 0 0-3-3l-9.563 9.563c-.346.346-.519.519-.642.72q-.165.271-.24.579c-.055.23-.055.474-.055.964z"/></svg>