<svg xmlns="http://www.w3.org/2000/svg" width="28" fill="none" viewBox="0 0 28 28"><path fill="currentColor" d="M14 0c-3.803 0-4.278.018-5.771.084-1.491.07-2.506.305-3.399.651A6.86 6.86 0 0 0 2.35 2.35 6.8 6.8 0 0 0 .735 4.83C.389 5.723.153 6.737.084 8.229.014 9.722 0 10.197 0 14s.018 4.278.084 5.772c.07 1.49.305 2.506.651 3.398.352.934.903 1.78 1.615 2.48a6.85 6.85 0 0 0 2.48 1.615c.894.345 1.909.582 3.399.651 1.493.07 1.968.084 5.771.084s4.278-.017 5.772-.084c1.49-.07 2.506-.306 3.398-.651a6.9 6.9 0 0 0 2.48-1.615 6.8 6.8 0 0 0 1.615-2.48c.345-.893.582-1.909.651-3.399.07-1.493.084-1.968.084-5.771s-.017-4.278-.084-5.771c-.07-1.49-.306-2.508-.651-3.399a6.9 6.9 0 0 0-1.615-2.48A6.8 6.8 0 0 0 23.17.735c-.893-.346-1.909-.582-3.399-.651C18.279.014 17.804 0 14 0m0 2.52c3.737 0 4.183.019 5.658.083 1.365.064 2.106.29 2.598.484.656.253 1.12.556 1.613 1.045.489.49.792.956 1.045 1.612.191.492.42 1.233.482 2.598.066 1.477.082 1.92.082 5.658s-.018 4.183-.087 5.658c-.07 1.365-.298 2.106-.49 2.598a4.45 4.45 0 0 1-1.05 1.613 4.4 4.4 0 0 1-1.61 1.045c-.49.191-1.242.42-2.607.482-1.486.066-1.924.082-5.669.082-3.746 0-4.184-.018-5.669-.087-1.366-.07-2.118-.298-2.608-.49a4.3 4.3 0 0 1-1.61-1.05 4.25 4.25 0 0 1-1.05-1.61c-.192-.49-.418-1.242-.49-2.607-.052-1.47-.07-1.924-.07-5.651 0-3.73.018-4.184.07-5.672.072-1.365.298-2.116.49-2.606.246-.665.56-1.12 1.05-1.611.49-.489.946-.804 1.61-1.048.49-.193 1.226-.421 2.59-.491 1.488-.053 1.926-.07 5.67-.07zm0 4.291a7.189 7.189 0 1 0 0 14.378A7.189 7.189 0 0 0 14 6.81m0 11.856A4.665 4.665 0 0 1 9.333 14 4.665 4.665 0 0 1 14 9.333 4.665 4.665 0 0 1 18.667 14 4.665 4.665 0 0 1 14 18.667m9.154-12.14a1.681 1.681 0 0 1-3.36 0 1.68 1.68 0 0 1 3.36 0"/></svg>