<svg xmlns="http://www.w3.org/2000/svg" width="60" viewBox="0 0 60 27" preserveAspectRatio="xMidYMid meet" fill="none"><path fill="currentColor" d="m11.84 18.704 6.208-16.352h5.376L13.728 26H9.952L.128 2.352H5.6zm16.393-14.88q0 1.184-.8 1.984t-1.984.8-1.984-.8-.8-1.984.8-1.952q.8-.8 1.984-.8t1.984.8q.8.768.8 1.952m-.544 4.736V26h-4.512V8.56zm9.778 17.824q-4.032 0-6.656-2.56-2.592-2.528-2.592-6.56t2.624-6.56q2.655-2.592 6.752-2.592 2.688 0 4.864 1.28a7.8 7.8 0 0 1 3.264 3.584l-3.616 1.984q-1.6-2.655-4.448-2.656-2.176 0-3.552 1.44-1.408 1.408-1.408 3.52 0 2.175 1.376 3.584 1.407 1.408 3.488 1.408 1.376 0 2.624-.736 1.248-.735 1.824-1.888l3.648 2.144q-1.12 2.112-3.328 3.36-2.176 1.248-4.864 1.248M55.148 4.912q-1.568 0-2.4.8-.832.768-.832 2.24v.608h5.408v3.776h-5.408V26h-4.512V12.336h-2.688V8.56h2.688v-.704q0-3.392 1.952-5.152Q51.341.912 54.476.912q2.592 0 4.96 1.28l-1.472 3.456q-1.664-.735-2.816-.736"/></svg>